<?xml version="1.0" encoding="UTF-8"?>
<svg version="1.1" xmlns="http://www.w3.org/2000/svg" width="387" height="385">
<path d="M0 0 C90.42 0 180.84 0 274 0 C274 0.66 274 1.32 274 2 C275.1446875 1.938125 275.1446875 1.938125 276.3125 1.875 C279 2 279 2 282 4 C282 4.66 282 5.32 282 6 C282.66 6 283.32 6 284 6 C284 7.32 284 8.64 284 10 C284.66 10 285.32 10 286 10 C286.02279003 39.79319313 286.040498 69.58638596 286.05106533 99.37958592 C286.05231611 102.89327539 286.05361042 106.40696485 286.05493164 109.9206543 C286.05532511 110.96996662 286.05532511 110.96996662 286.05572652 112.04047716 C286.06008328 123.38209168 286.06797086 134.72370116 286.0771528 146.06531268 C286.08648916 157.69427491 286.09198067 169.32323419 286.09408849 180.9522 C286.09539604 187.48761304 286.09848468 194.02301462 286.10573006 200.558424 C286.11248618 206.70193847 286.1146178 212.8454367 286.11310768 218.98895454 C286.11338419 221.2509533 286.11539172 223.51295256 286.11920547 225.77494812 C286.12413636 228.84871932 286.12300053 231.9224281 286.12025452 234.99620056 C286.12462378 236.35755415 286.12462378 236.35755415 286.12908131 237.74640983 C286.11412121 243.88587879 286.11412121 243.88587879 285 245 C284.896875 246.155 284.79375 247.31 284.6875 248.5 C284.14810024 253.46247782 282.20525084 257.56898436 280 262 C279.34 262 278.68 262 278 262 C278 263.32 278 264.64 278 266 C277.34 266 276.68 266 276 266 C276 266.66 276 267.32 276 268 C275.34 268 274.68 268 274 268 C274 269.32 274 270.64 274 272 C273.34 272 272.68 272 272 272 C272 272.66 272 273.32 272 274 C271.34 274 270.68 274 270 274 C270 274.66 270 275.32 270 276 C269.34 276 268.68 276 268 276 C267.34 277.32 266.68 278.64 266 280 C265.34 280 264.68 280 264 280 C264 280.66 264 281.32 264 282 C263.34 282 262.68 282 262 282 C262 282.66 262 283.32 262 284 C261.34 284 260.68 284 260 284 C260 284.66 260 285.32 260 286 C259.34 286 258.68 286 258 286 C258 286.66 258 287.32 258 288 C257.34 288 256.68 288 256 288 C256 288.66 256 289.32 256 290 C254.68 290 253.36 290 252 290 C252 290.66 252 291.32 252 292 C251.34 292 250.68 292 250 292 C250 292.66 250 293.32 250 294 C248.68 294 247.36 294 246 294 C246 294.66 246 295.32 246 296 C243 298 243 298 240 298 C240 298.66 240 299.32 240 300 C238.68 300 237.36 300 236 300 C236 300.66 236 301.32 236 302 C234.68 302 233.36 302 232 302 C232 302.66 232 303.32 232 304 C230.68 304 229.36 304 228 304 C228 304.66 228 305.32 228 306 C226.68 306 225.36 306 224 306 C224 306.66 224 307.32 224 308 C222.02 308 220.04 308 218 308 C218 308.66 218 309.32 218 310 C216.68 310 215.36 310 214 310 C214 310.66 214 311.32 214 312 C212.68 312 211.36 312 210 312 C210 312.66 210 313.32 210 314 C209.31292969 314.26554687 208.62585938 314.53109375 207.91796875 314.8046875 C206.56638672 315.33449219 206.56638672 315.33449219 205.1875 315.875 C204.29417969 316.22304688 203.40085937 316.57109375 202.48046875 316.9296875 C199.82288409 317.98832155 199.82288409 317.98832155 197 320 C194.3125 320.125 194.3125 320.125 192 320 C192 320.66 192 321.32 192 322 C190.68 322 189.36 322 188 322 C188 322.66 188 323.32 188 324 C186.68 324 185.36 324 184 324 C184 324.66 184 325.32 184 326 C182.68 326 181.36 326 180 326 C180 326.66 180 327.32 180 328 C178.02 328 176.04 328 174 328 C174 328.66 174 329.32 174 330 C172.68 330 171.36 330 170 330 C170 330.66 170 331.32 170 332 C168.68 332 167.36 332 166 332 C166 332.66 166 333.32 166 334 C164.68 334 163.36 334 162 334 C162 334.66 162 335.32 162 336 C160.68 336 159.36 336 158 336 C158 336.66 158 337.32 158 338 C156.68 338 155.36 338 154 338 C154 338.66 154 339.32 154 340 C151 342 151 342 148 342 C148 342.66 148 343.32 148 344 C147.34 344 146.68 344 146 344 C146 344.66 146 345.32 146 346 C142.57905758 348.28062828 141.31812778 348.21925007 137.3125 348.125 C136.31863281 348.10695313 135.32476562 348.08890625 134.30078125 348.0703125 C133.16189453 348.03550781 133.16189453 348.03550781 132 348 C132 347.34 132 346.68 132 346 C131.34 346 130.68 346 130 346 C130 345.34 130 344.68 130 344 C129.38125 343.855625 128.7625 343.71125 128.125 343.5625 C126 343 126 343 124 342 C124 341.34 124 340.68 124 340 C122.68 340 121.36 340 120 340 C120 339.34 120 338.68 120 338 C118.68 338 117.36 338 116 338 C116 337.34 116 336.68 116 336 C114.68 336 113.36 336 112 336 C112 335.34 112 334.68 112 334 C111.4225 333.855625 110.845 333.71125 110.25 333.5625 C108.16666667 333.04166667 106.08333333 332.52083333 104 332 C104 331.34 104 330.68 104 330 C102.68 330 101.36 330 100 330 C100 329.34 100 328.68 100 328 C98.68 328 97.36 328 96 328 C96 327.34 96 326.68 96 326 C94.9171875 326.061875 94.9171875 326.061875 93.8125 326.125 C90.79270631 325.99078695 88.73064271 325.24829381 86 324 C86 323.34 86 322.68 86 322 C84.68 322 83.36 322 82 322 C82 321.34 82 320.68 82 320 C80.68 320 79.36 320 78 320 C78 319.34 78 318.68 78 318 C76.68 318 75.36 318 74 318 C74 317.34 74 316.68 74 316 C72.68 316 71.36 316 70 316 C70 315.34 70 314.68 70 314 C68.68 314 67.36 314 66 314 C66 313.34 66 312.68 66 312 C64.9171875 312.061875 64.9171875 312.061875 63.8125 312.125 C60.79270631 311.99078695 58.73064271 311.24829381 56 310 C56 309.34 56 308.68 56 308 C54.68 308 53.36 308 52 308 C52 307.34 52 306.68 52 306 C50.68 306 49.36 306 48 306 C48 305.34 48 304.68 48 304 C46.68 304 45.36 304 44 304 C44 303.34 44 302.68 44 302 C42.68 302 41.36 302 40 302 C40 301.34 40 300.68 40 300 C38.68 300 37.36 300 36 300 C36 299.34 36 298.68 36 298 C34.68 298 33.36 298 32 298 C32 297.34 32 296.68 32 296 C30.68 296 29.36 296 28 296 C28 295.34 28 294.68 28 294 C26.68 294 25.36 294 24 294 C24 293.34 24 292.68 24 292 C23.34 292 22.68 292 22 292 C22 291.34 22 290.68 22 290 C20.68 290 19.36 290 18 290 C18 289.34 18 288.68 18 288 C17.34 288 16.68 288 16 288 C16 287.34 16 286.68 16 286 C15.34 286 14.68 286 14 286 C14 285.34 14 284.68 14 284 C13.34 284 12.68 284 12 284 C12 283.34 12 282.68 12 282 C11.34 282 10.68 282 10 282 C10 281.34 10 280.68 10 280 C9.34 280 8.68 280 8 280 C8 279.34 8 278.68 8 278 C7.34 278 6.68 278 6 278 C6 277.34 6 276.68 6 276 C5.34 276 4.68 276 4 276 C4 275.34 4 274.68 4 274 C3.34 274 2.68 274 2 274 C1.34 272.02 0.68 270.04 0 268 C-0.66 268 -1.32 268 -2 268 C-2 266.68 -2 265.36 -2 264 C-2.66 264 -3.32 264 -4 264 C-5.76462683 260.91190305 -6 259.76687864 -6 256 C-6.66 256 -7.32 256 -8 256 C-8 254.02 -8 252.04 -8 250 C-8.66 250 -9.32 250 -10 250 C-10 247.36 -10 244.72 -10 242 C-10.66 242 -11.32 242 -12 242 C-12 166.1 -12 90.2 -12 12 C-11.34 12 -10.68 12 -10 12 C-10 10.68 -10 9.36 -10 8 C-9.34 8 -8.68 8 -8 8 C-8 6.68 -8 5.36 -8 4 C-4.77208445 1.8480563 -3.71599191 1.79913557 0 2 C0 1.34 0 0.68 0 0 Z " fill="#FCFCFC" transform="translate(56,24)"/>
<path d="M0 0 C90.42 0 180.84 0 274 0 C274 0.66 274 1.32 274 2 C275.1446875 1.938125 275.1446875 1.938125 276.3125 1.875 C279 2 279 2 282 4 C282 4.66 282 5.32 282 6 C282.66 6 283.32 6 284 6 C284 7.32 284 8.64 284 10 C284.66 10 285.32 10 286 10 C286.02279003 39.79319313 286.040498 69.58638596 286.05106533 99.37958592 C286.05231611 102.89327539 286.05361042 106.40696485 286.05493164 109.9206543 C286.05532511 110.96996662 286.05532511 110.96996662 286.05572652 112.04047716 C286.06008328 123.38209168 286.06797086 134.72370116 286.0771528 146.06531268 C286.08648916 157.69427491 286.09198067 169.32323419 286.09408849 180.9522 C286.09539604 187.48761304 286.09848468 194.02301462 286.10573006 200.558424 C286.11248618 206.70193847 286.1146178 212.8454367 286.11310768 218.98895454 C286.11338419 221.2509533 286.11539172 223.51295256 286.11920547 225.77494812 C286.12413636 228.84871932 286.12300053 231.9224281 286.12025452 234.99620056 C286.12462378 236.35755415 286.12462378 236.35755415 286.12908131 237.74640983 C286.11412121 243.88587879 286.11412121 243.88587879 285 245 C284.896875 246.155 284.79375 247.31 284.6875 248.5 C284.14810024 253.46247782 282.20525084 257.56898436 280 262 C279.34 262 278.68 262 278 262 C278 263.32 278 264.64 278 266 C277.34 266 276.68 266 276 266 C276 266.66 276 267.32 276 268 C275.34 268 274.68 268 274 268 C274 269.32 274 270.64 274 272 C273.34 272 272.68 272 272 272 C272 272.66 272 273.32 272 274 C271.34 274 270.68 274 270 274 C270 274.66 270 275.32 270 276 C269.34 276 268.68 276 268 276 C267.34 277.32 266.68 278.64 266 280 C265.34 280 264.68 280 264 280 C264 280.66 264 281.32 264 282 C263.34 282 262.68 282 262 282 C262 282.66 262 283.32 262 284 C261.34 284 260.68 284 260 284 C260 284.66 260 285.32 260 286 C259.34 286 258.68 286 258 286 C258 286.66 258 287.32 258 288 C257.34 288 256.68 288 256 288 C256 288.66 256 289.32 256 290 C254.68 290 253.36 290 252 290 C252 290.66 252 291.32 252 292 C251.34 292 250.68 292 250 292 C250 292.66 250 293.32 250 294 C248.68 294 247.36 294 246 294 C246 294.66 246 295.32 246 296 C243 298 243 298 240 298 C240 298.66 240 299.32 240 300 C238.68 300 237.36 300 236 300 C236 300.66 236 301.32 236 302 C234.68 302 233.36 302 232 302 C232 302.66 232 303.32 232 304 C230.68 304 229.36 304 228 304 C228 304.66 228 305.32 228 306 C226.68 306 225.36 306 224 306 C224 306.66 224 307.32 224 308 C222.02 308 220.04 308 218 308 C218 308.66 218 309.32 218 310 C216.68 310 215.36 310 214 310 C214 310.66 214 311.32 214 312 C212.68 312 211.36 312 210 312 C210 312.66 210 313.32 210 314 C209.31292969 314.26554687 208.62585938 314.53109375 207.91796875 314.8046875 C206.56638672 315.33449219 206.56638672 315.33449219 205.1875 315.875 C204.29417969 316.22304688 203.40085937 316.57109375 202.48046875 316.9296875 C199.82288409 317.98832155 199.82288409 317.98832155 197 320 C194.3125 320.125 194.3125 320.125 192 320 C192 320.66 192 321.32 192 322 C190.68 322 189.36 322 188 322 C188 322.66 188 323.32 188 324 C186.68 324 185.36 324 184 324 C184 324.66 184 325.32 184 326 C182.68 326 181.36 326 180 326 C180 326.66 180 327.32 180 328 C178.02 328 176.04 328 174 328 C174 328.66 174 329.32 174 330 C172.68 330 171.36 330 170 330 C170 330.66 170 331.32 170 332 C168.68 332 167.36 332 166 332 C166 332.66 166 333.32 166 334 C164.68 334 163.36 334 162 334 C162 334.66 162 335.32 162 336 C160.68 336 159.36 336 158 336 C158 336.66 158 337.32 158 338 C156.68 338 155.36 338 154 338 C154 338.66 154 339.32 154 340 C151 342 151 342 148 342 C148 342.66 148 343.32 148 344 C147.34 344 146.68 344 146 344 C146 344.66 146 345.32 146 346 C142.57905758 348.28062828 141.31812778 348.21925007 137.3125 348.125 C136.31863281 348.10695313 135.32476562 348.08890625 134.30078125 348.0703125 C133.16189453 348.03550781 133.16189453 348.03550781 132 348 C132 347.34 132 346.68 132 346 C131.34 346 130.68 346 130 346 C130 345.34 130 344.68 130 344 C129.38125 343.855625 128.7625 343.71125 128.125 343.5625 C126 343 126 343 124 342 C124 341.34 124 340.68 124 340 C122.68 340 121.36 340 120 340 C120 339.34 120 338.68 120 338 C118.68 338 117.36 338 116 338 C116 337.34 116 336.68 116 336 C114.68 336 113.36 336 112 336 C112 335.34 112 334.68 112 334 C111.4225 333.855625 110.845 333.71125 110.25 333.5625 C108.16666667 333.04166667 106.08333333 332.52083333 104 332 C104 331.34 104 330.68 104 330 C102.68 330 101.36 330 100 330 C100 329.34 100 328.68 100 328 C98.68 328 97.36 328 96 328 C96 327.34 96 326.68 96 326 C94.9171875 326.061875 94.9171875 326.061875 93.8125 326.125 C90.79270631 325.99078695 88.73064271 325.24829381 86 324 C86 323.34 86 322.68 86 322 C84.68 322 83.36 322 82 322 C82 321.34 82 320.68 82 320 C80.68 320 79.36 320 78 320 C78 319.34 78 318.68 78 318 C76.68 318 75.36 318 74 318 C74 317.34 74 316.68 74 316 C72.68 316 71.36 316 70 316 C70 315.34 70 314.68 70 314 C68.68 314 67.36 314 66 314 C66 313.34 66 312.68 66 312 C64.9171875 312.061875 64.9171875 312.061875 63.8125 312.125 C60.79270631 311.99078695 58.73064271 311.24829381 56 310 C56 309.34 56 308.68 56 308 C54.68 308 53.36 308 52 308 C52 307.34 52 306.68 52 306 C50.68 306 49.36 306 48 306 C48 305.34 48 304.68 48 304 C46.68 304 45.36 304 44 304 C44 303.34 44 302.68 44 302 C42.68 302 41.36 302 40 302 C40 301.34 40 300.68 40 300 C38.68 300 37.36 300 36 300 C36 299.34 36 298.68 36 298 C34.68 298 33.36 298 32 298 C32 297.34 32 296.68 32 296 C30.68 296 29.36 296 28 296 C28 295.34 28 294.68 28 294 C26.68 294 25.36 294 24 294 C24 293.34 24 292.68 24 292 C23.34 292 22.68 292 22 292 C22 291.34 22 290.68 22 290 C20.68 290 19.36 290 18 290 C18 289.34 18 288.68 18 288 C17.34 288 16.68 288 16 288 C16 287.34 16 286.68 16 286 C15.34 286 14.68 286 14 286 C14 285.34 14 284.68 14 284 C13.34 284 12.68 284 12 284 C12 283.34 12 282.68 12 282 C11.34 282 10.68 282 10 282 C10 281.34 10 280.68 10 280 C9.34 280 8.68 280 8 280 C8 279.34 8 278.68 8 278 C7.34 278 6.68 278 6 278 C6 277.34 6 276.68 6 276 C5.34 276 4.68 276 4 276 C4 275.34 4 274.68 4 274 C3.34 274 2.68 274 2 274 C1.34 272.02 0.68 270.04 0 268 C-0.66 268 -1.32 268 -2 268 C-2 266.68 -2 265.36 -2 264 C-2.66 264 -3.32 264 -4 264 C-5.76462683 260.91190305 -6 259.76687864 -6 256 C-6.66 256 -7.32 256 -8 256 C-8 254.02 -8 252.04 -8 250 C-8.66 250 -9.32 250 -10 250 C-10 247.36 -10 244.72 -10 242 C-10.66 242 -11.32 242 -12 242 C-12 166.1 -12 90.2 -12 12 C-11.34 12 -10.68 12 -10 12 C-10 10.68 -10 9.36 -10 8 C-9.34 8 -8.68 8 -8 8 C-8 6.68 -8 5.36 -8 4 C-4.77208445 1.8480563 -3.71599191 1.79913557 0 2 C0 1.34 0 0.68 0 0 Z M17 29 C16.938125 62.61875 16.87625 96.2375 16.8125 130.875 C16.78518799 141.48640137 16.75787598 152.09780273 16.72973633 163.03076172 C16.71970242 172.55079505 16.71970242 172.55079505 16.71366882 182.0708313 C16.71087625 186.30793988 16.6996432 190.54493546 16.68327332 194.78201294 C16.6626498 200.1919913 16.65653512 205.60180605 16.66078317 211.01182008 C16.65989527 212.99395802 16.65397379 214.97610186 16.64235461 216.95820594 C16.40289145 230.77601037 16.40289145 230.77601037 20 244 C20.43699219 245.02351562 20.87398437 246.04703125 21.32421875 247.1015625 C35.94973386 274.17343287 74.2147968 286.28503885 101.03759766 298.22949219 C106.93997008 300.86126962 112.81406086 303.55434075 118.6875 306.25 C120.13769531 306.91249756 120.13769531 306.91249756 121.6171875 307.58837891 C122.95716797 308.20205322 122.95716797 308.20205322 124.32421875 308.828125 C125.55470947 309.38790039 125.55470947 309.38790039 126.81005859 309.95898438 C128.67117497 310.84368897 130.47824513 311.84067465 132.26953125 312.859375 C135.76804175 314.32084148 137.32503977 313.88905485 141 313 C143.50497922 311.86867953 145.8982739 310.70226563 148.3203125 309.41796875 C153.92477385 306.53165611 159.55734142 303.76658162 165.3046875 301.17578125 C165.99811752 300.86261963 166.69154755 300.54945801 167.4059906 300.22680664 C168.83052976 299.58439448 170.25537339 298.94265709 171.68051147 298.30157471 C222.04364021 278.11300855 222.04364021 278.11300855 255 238 C256.17362929 233.91602873 256.13589588 229.95605904 256.12025452 225.73638916 C256.12111053 224.89786911 256.12196655 224.05934906 256.12284851 223.19541931 C256.12450559 220.37277105 256.11897696 217.55018192 256.11352539 214.72753906 C256.11321911 212.67452878 256.11335245 210.62151839 256.11389065 208.56850815 C256.11411668 203.06378044 256.10831499 197.5590744 256.10128021 192.05435181 C256.09559113 186.89153982 256.09531741 181.72873315 256.09460449 176.56591797 C256.08935427 161.4606091 256.07539316 146.35530428 256.0625 131.25 C256.041875 97.5075 256.02125 63.765 256 29 C177.13 29 98.26 29 17 29 Z " fill="#1D2C3D" transform="translate(56,24)"/>
<path d="M0 0 C20.13 0 40.26 0 61 0 C61 2.31 61 4.62 61 7 C60.07767578 7.09087891 60.07767578 7.09087891 59.13671875 7.18359375 C58.32847656 7.26738281 57.52023438 7.35117188 56.6875 7.4375 C55.88699219 7.51871094 55.08648437 7.59992188 54.26171875 7.68359375 C51.83912821 7.95265693 51.83912821 7.95265693 49 9 C47.23828388 12.38876749 46.73985908 15.2790892 46.68115234 19.06567383 C46.66109131 20.05990356 46.64103027 21.0541333 46.62036133 22.07849121 C46.60900146 23.11090942 46.5976416 24.14332764 46.5859375 25.20703125 C46.56829346 26.1652478 46.55064941 27.12346436 46.5324707 28.11071777 C46.46957593 31.67781024 46.42327041 35.24517966 46.375 38.8125 C46.25125 46.794375 46.1275 54.77625 46 63 C68.44 63 90.88 63 114 63 C113.9175 55.20375 113.835 47.4075 113.75 39.375 C113.73420898 36.92368652 113.71841797 34.47237305 113.70214844 31.94677734 C113.67277044 29.99314019 113.64194317 28.03952407 113.609375 26.0859375 C113.60768311 24.57737183 113.60768311 24.57737183 113.60595703 23.03833008 C113.48466902 17.07894713 112.99237364 13.53322164 109 9 C106.70370006 7.85185003 104.92301914 7.69230191 102.375 7.4375 C101.55773437 7.35371094 100.74046875 7.26992187 99.8984375 7.18359375 C99.27195312 7.12300781 98.64546875 7.06242187 98 7 C98 4.69 98 2.38 98 0 C118.13 0 138.26 0 159 0 C159 2.31 159 4.62 159 7 C158.40832031 7.01417969 157.81664062 7.02835937 157.20703125 7.04296875 C156.02173828 7.11451172 156.02173828 7.11451172 154.8125 7.1875 C154.03519531 7.22230469 153.25789062 7.25710937 152.45703125 7.29296875 C148.67999177 8.37984339 147.37058097 9.8385378 145 13 C144.2527606 16.86023307 144.33772396 20.6743678 144.38476562 24.59570312 C144.37644211 26.35502419 144.37644211 26.35502419 144.36795044 28.14988708 C144.35613839 32.02742343 144.38044757 35.90379535 144.40625 39.78125 C144.41042605 42.47497963 144.40799896 45.16869548 144.40612793 47.86242676 C144.40618147 53.50820043 144.42591656 59.15363904 144.45800781 64.79931641 C144.49489933 71.32107273 144.50368305 77.84239026 144.4967103 84.36423731 C144.49039903 90.6449795 144.50117105 96.92557166 144.52067566 103.20628357 C144.52883796 105.87606999 144.53082953 108.54564525 144.52998352 111.21546936 C144.53177942 114.9453228 144.55314509 118.67455135 144.58007812 122.40429688 C144.57714752 123.50990463 144.57421692 124.61551239 144.57119751 125.75462341 C144.64489453 132.36319292 145.19213852 136.19213852 150 141 C151.93991404 141.42137285 151.93991404 141.42137285 154.0625 141.5625 C158 142 158 142 159 143 C159 144.98 159 146.96 159 149 C138.87 149 118.74 149 98 149 C98 147.02 98 145.04 98 143 C98.60328125 142.90203125 99.2065625 142.8040625 99.828125 142.703125 C104.69216041 141.79307967 107.89087142 141.14550477 111 137 C112.2546715 134.49065701 112.15873558 132.71622645 112.20532227 129.90771484 C112.22550415 128.83191162 112.24568604 127.7561084 112.26647949 126.64770508 C112.29119324 124.94650513 112.29119324 124.94650513 112.31640625 123.2109375 C112.33505737 122.17106689 112.3537085 121.13119629 112.3729248 120.05981445 C112.44136737 116.16496503 112.50142344 112.26997189 112.5625 108.375 C112.706875 99.67125 112.85125 90.9675 113 82 C90.89 82 68.78 82 46 82 C46.0825 90.45625 46.165 98.9125 46.25 107.625 C46.27368652 111.6152124 46.27368652 111.6152124 46.29785156 115.68603516 C46.32722674 117.803733 46.3580535 119.92141141 46.390625 122.0390625 C46.39231689 123.67717896 46.39231689 123.67717896 46.39404297 125.34838867 C46.50931683 131.48461304 46.77341025 135.39093092 51 140 C53.7581741 141.33963159 53.7581741 141.33963159 56.75 141.875 C57.73484375 142.09929687 58.7196875 142.32359375 59.734375 142.5546875 C60.48203125 142.70164063 61.2296875 142.84859375 62 143 C62 144.98 62 146.96 62 149 C41.87 149 21.74 149 1 149 C1 147.02 1 145.04 1 143 C1.67546875 142.87625 2.3509375 142.7525 3.046875 142.625 C3.93890625 142.41875 4.8309375 142.2125 5.75 142 C6.63171875 141.814375 7.5134375 141.62875 8.421875 141.4375 C12.27492887 139.28913057 13.62298885 136.03493645 15 132 C15.54879135 128.13605372 15.53734622 124.32867505 15.50170898 120.4309082 C15.50711197 119.2966037 15.51251495 118.16229919 15.51808167 116.99362183 C15.53054003 113.26240566 15.5140992 109.53196525 15.49609375 105.80078125 C15.49624877 103.20102396 15.49773827 100.60126644 15.50050354 98.00151062 C15.50188614 92.56201046 15.48978671 87.1227943 15.46655273 81.68334961 C15.43990701 75.40181576 15.43821111 69.12065121 15.4499411 62.83908015 C15.46073002 56.7820552 15.45442353 50.72519893 15.44038582 44.66817284 C15.4358687 42.09613623 15.43553678 39.52408876 15.43945122 36.95205116 C15.44235872 33.36144285 15.42587885 29.77144003 15.40405273 26.1809082 C15.40855438 25.11741653 15.41305603 24.05392487 15.41769409 22.95820618 C15.39600438 15.97407648 15.39600438 15.97407648 12 10 C8.49778204 7.40576447 4.2161802 7.42161802 0 7 C0 4.69 0 2.38 0 0 Z " fill="#5E3118" transform="translate(114,102)"/>
<path d="M0 0 C90.42 0 180.84 0 274 0 C274 0.66 274 1.32 274 2 C275.1446875 1.938125 275.1446875 1.938125 276.3125 1.875 C279 2 279 2 282 4 C282 4.66 282 5.32 282 6 C282.66 6 283.32 6 284 6 C284 7.32 284 8.64 284 10 C284.66 10 285.32 10 286 10 C286.02279003 39.79319313 286.040498 69.58638596 286.05106533 99.37958592 C286.05231611 102.89327539 286.05361042 106.40696485 286.05493164 109.9206543 C286.05532511 110.96996662 286.05532511 110.96996662 286.05572652 112.04047716 C286.06008328 123.38209168 286.06797086 134.72370116 286.0771528 146.06531268 C286.08648916 157.69427491 286.09198067 169.32323419 286.09408849 180.9522 C286.09539604 187.48761304 286.09848468 194.02301462 286.10573006 200.558424 C286.11248618 206.70193847 286.1146178 212.8454367 286.11310768 218.98895454 C286.11338419 221.2509533 286.11539172 223.51295256 286.11920547 225.77494812 C286.12413636 228.84871932 286.12300053 231.9224281 286.12025452 234.99620056 C286.12462378 236.35755415 286.12462378 236.35755415 286.12908131 237.74640983 C286.11412121 243.88587879 286.11412121 243.88587879 285 245 C284.896875 246.155 284.79375 247.31 284.6875 248.5 C284.14810024 253.46247782 282.20525084 257.56898436 280 262 C279.34 262 278.68 262 278 262 C278 263.32 278 264.64 278 266 C277.34 266 276.68 266 276 266 C276 266.66 276 267.32 276 268 C275.34 268 274.68 268 274 268 C274 269.32 274 270.64 274 272 C273.34 272 272.68 272 272 272 C272 272.66 272 273.32 272 274 C271.34 274 270.68 274 270 274 C270 274.66 270 275.32 270 276 C269.34 276 268.68 276 268 276 C267.34 277.32 266.68 278.64 266 280 C265.34 280 264.68 280 264 280 C264 280.66 264 281.32 264 282 C263.34 282 262.68 282 262 282 C262 282.66 262 283.32 262 284 C261.34 284 260.68 284 260 284 C260 284.66 260 285.32 260 286 C259.34 286 258.68 286 258 286 C258 286.66 258 287.32 258 288 C257.34 288 256.68 288 256 288 C256 288.66 256 289.32 256 290 C254.68 290 253.36 290 252 290 C252 290.66 252 291.32 252 292 C251.34 292 250.68 292 250 292 C250 292.66 250 293.32 250 294 C248.68 294 247.36 294 246 294 C246 294.66 246 295.32 246 296 C243 298 243 298 240 298 C240 298.66 240 299.32 240 300 C238.68 300 237.36 300 236 300 C236 300.66 236 301.32 236 302 C234.68 302 233.36 302 232 302 C232 302.66 232 303.32 232 304 C230.68 304 229.36 304 228 304 C228 304.66 228 305.32 228 306 C226.68 306 225.36 306 224 306 C224 306.66 224 307.32 224 308 C222.02 308 220.04 308 218 308 C218 308.66 218 309.32 218 310 C216.68 310 215.36 310 214 310 C214 310.66 214 311.32 214 312 C212.68 312 211.36 312 210 312 C210 312.66 210 313.32 210 314 C209.31292969 314.26554687 208.62585938 314.53109375 207.91796875 314.8046875 C206.56638672 315.33449219 206.56638672 315.33449219 205.1875 315.875 C204.29417969 316.22304688 203.40085937 316.57109375 202.48046875 316.9296875 C199.82288409 317.98832155 199.82288409 317.98832155 197 320 C194.3125 320.125 194.3125 320.125 192 320 C192 320.66 192 321.32 192 322 C190.68 322 189.36 322 188 322 C188 322.66 188 323.32 188 324 C186.68 324 185.36 324 184 324 C184 324.66 184 325.32 184 326 C182.68 326 181.36 326 180 326 C180 326.66 180 327.32 180 328 C178.02 328 176.04 328 174 328 C174 328.66 174 329.32 174 330 C172.68 330 171.36 330 170 330 C170 330.66 170 331.32 170 332 C168.68 332 167.36 332 166 332 C166 332.66 166 333.32 166 334 C164.68 334 163.36 334 162 334 C162 334.66 162 335.32 162 336 C160.68 336 159.36 336 158 336 C158 336.66 158 337.32 158 338 C156.68 338 155.36 338 154 338 C154 338.66 154 339.32 154 340 C151 342 151 342 148 342 C148 342.66 148 343.32 148 344 C147.34 344 146.68 344 146 344 C146 344.66 146 345.32 146 346 C142.5647952 348.29013653 141.014669 348.17842973 137 348 C144.40553479 338.02970431 157.05239812 333.26350943 168 328 C168.67401855 327.67338379 169.34803711 327.34676758 170.04248047 327.01025391 C178.30234565 323.01329077 186.62525613 319.15928392 194.984375 315.375 C195.69622452 315.05253799 196.40807404 314.73007599 197.14149475 314.39784241 C200.70004667 312.78672847 204.26041284 311.17983623 207.82397461 309.57983398 C217.34079521 305.29251179 226.70331516 300.74522975 236 296 C236.62430405 295.68152603 237.24860809 295.36305206 237.89183044 295.03492737 C256.90435108 285.306811 272.82202587 271.13685614 280.18639052 250.54357469 C282.54516851 243.16936366 283.29600844 235.9236758 283.2784729 228.21762085 C283.2871615 226.82048023 283.2871615 226.82048023 283.29602563 225.39511454 C283.31290549 222.30292443 283.31589172 219.21088465 283.31884766 216.11865234 C283.32815413 213.89060099 283.33832387 211.66255309 283.34928894 209.43450928 C283.37652183 203.40637542 283.39171847 197.37826484 283.40471697 191.35008574 C283.42037689 185.04265907 283.44715799 178.73527975 283.4727478 172.42788696 C283.5141792 161.84793547 283.54878789 151.26797878 283.578125 140.68798828 C283.60834954 129.79474015 283.64271763 118.90151796 283.68261719 108.00830078 C283.68507874 107.33586702 283.68754028 106.66343325 283.69007643 105.9706227 C283.70245179 102.59692869 283.71490817 99.22323499 283.72740483 95.84954143 C283.8308304 67.89973042 283.91993408 39.94988695 284 12 C283.34 12 282.68 12 282 12 C281.87625 12.928125 281.7525 13.85625 281.625 14.8125 C281 18 281 18 279 21 C277.68 21 276.36 21 275 21 C275 21.99 275 22.98 275 24 C272.69 23.67 270.38 23.34 268 23 C268 24.32 268 25.64 268 27 C267.401875 26.79375 266.80375 26.5875 266.1875 26.375 C263.71549154 25.69328085 263.71549154 25.69328085 261 28 C260.7497843 31.08365871 260.7497843 31.08365871 261 34 C259.515 34.495 259.515 34.495 258 35 C258 35.66 258 36.32 258 37 C257.34 37 256.68 37 256 37 C256 34.36 256 31.72 256 29 C177.13 29 98.26 29 17 29 C17 28.67 17 28.34 17 28 C48.02 27.67 79.04 27.34 111 27 C110.01 24.525 110.01 24.525 109 22 C109 21.34 109 20.68 109 20 C110.32 19.67 111.64 19.34 113 19 C111.68 17.68 110.36 16.36 109 15 C108.01 15.66 107.02 16.32 106 17 C105.41155987 15.61490247 104.85518578 14.21615562 104.3125 12.8125 C103.99925781 12.03519531 103.68601562 11.25789063 103.36328125 10.45703125 C103 8 103 8 106 3 C53.53 2.505 53.53 2.505 0 2 C0 1.34 0 0.68 0 0 Z " fill="#223345" transform="translate(56,24)"/>
<path d="M0 0 C0.33 0 0.66 0 1 0 C1.33 2.64 1.66 5.28 2 8 C3.32 8.33 4.64 8.66 6 9 C6 8.34 6 7.68 6 7 C7.98 6.67 9.96 6.34 12 6 C12.33 4.68 12.66 3.36 13 2 C13.99 2.33 14.98 2.66 16 3 C16.6875 5.0625 16.6875 5.0625 17 7 C13.77208445 9.1519437 12.71599191 9.20086443 9 9 C9.66 10.32 10.32 11.64 11 13 C10.01 13.99 9.02 14.98 8 16 C9.32 16 10.64 16 12 16 C12 16.66 12 17.32 12 18 C10.02 18.99 10.02 18.99 8 20 C8.33 21.32 8.66 22.64 9 24 C7.35 24.33 5.7 24.66 4 25 C4.66 27.31 5.32 29.62 6 32 C5.34 32 4.68 32 4 32 C4 32.66 4 33.32 4 34 C5.65 33.34 7.3 32.68 9 32 C9.66 32.66 10.32 33.32 11 34 C10.34 35.32 9.68 36.64 9 38 C10.32 38.33 11.64 38.66 13 39 C13.33 40.32 13.66 41.64 14 43 C11.03 43.495 11.03 43.495 8 44 C8 44.66 8 45.32 8 46 C9.32 45.34 10.64 44.68 12 44 C12 44.66 12 45.32 12 46 C14.99992729 44.70855022 14.99992729 44.70855022 18 43 C18.33 42.01 18.66 41.02 19 40 C20.32 40 21.64 40 23 40 C23 40.66 23 41.32 23 42 C22.01 42.495 22.01 42.495 21 43 C21 43.66 21 44.32 21 45 C21.99 45.66 22.98 46.32 24 47 C23.67 47.33 23.34 47.66 23 48 C23.99 48.99 24.98 49.98 26 51 C25.25 53.4375 25.25 53.4375 24 56 C21.875 56.8125 21.875 56.8125 20 57 C20.49371094 57.39058594 20.98742187 57.78117187 21.49609375 58.18359375 C23.50184482 60.60612426 23.24926321 61.96951908 23.0625 65.0625 C22.8709321 67.65814678 22.8709321 67.65814678 23 70 C23.99 70.99 23.99 70.99 25 72 C24.34 72 23.68 72 23 72 C23 72.66 23 73.32 23 74 C23.99 74 24.98 74 26 74 C26 74.66 26 75.32 26 76 C27.32 76 28.64 76 30 76 C30.01401855 77.13429443 30.01401855 77.13429443 30.02832031 78.29150391 C30.082192 81.73665134 30.16580841 85.18046562 30.25 88.625 C30.26417969 89.81480469 30.27835938 91.00460938 30.29296875 92.23046875 C30.39818744 100.9891004 30.39818744 100.9891004 35 108 C37.7581741 109.33963159 37.7581741 109.33963159 40.75 109.875 C41.73484375 110.09929687 42.7196875 110.32359375 43.734375 110.5546875 C44.48203125 110.70164062 45.2296875 110.84859375 46 111 C46 112.98 46 114.96 46 117 C25.87 117 5.74 117 -15 117 C-15 115.02 -15 113.04 -15 111 C-14.32453125 110.87625 -13.6490625 110.7525 -12.953125 110.625 C-11.61507812 110.315625 -11.61507812 110.315625 -10.25 110 C-9.36828125 109.814375 -8.4865625 109.62875 -7.578125 109.4375 C-3.6886564 107.2688266 -2.46469387 104.11996362 -1 100 C-0.45739185 96.62755809 -0.43516949 93.3230655 -0.45410156 89.91210938 C-0.44376389 88.93558411 -0.43342621 87.95905884 -0.42277527 86.95294189 C-0.39345724 83.74970741 -0.39185039 80.54710783 -0.390625 77.34375 C-0.37563597 75.113147 -0.35890731 72.88255507 -0.34051514 70.65197754 C-0.29691091 64.79947384 -0.27685773 58.94711986 -0.26177979 53.09448242 C-0.24218385 47.11498183 -0.20021656 41.13564231 -0.16015625 35.15625 C-0.08492903 23.43754977 -0.0345921 11.71888572 0 0 Z M19 45 C18.67 45.66 18.34 46.32 18 47 C18.66 47 19.32 47 20 47 C19.67 46.34 19.34 45.68 19 45 Z M20 49 C20.66 49.66 21.32 50.32 22 51 C22 50.34 22 49.68 22 49 C21.34 49 20.68 49 20 49 Z " fill="#572C14" transform="translate(130,134)"/>
<path d="M0 0 C37.62 0 75.24 0 114 0 C114.495 2.475 114.495 2.475 115 5 C114.34 5 113.68 5 113 5 C113 5.66 113 6.32 113 7 C113.99 7.495 113.99 7.495 115 8 C114.21625 8.2475 113.4325 8.495 112.625 8.75 C109.67682892 10.15389099 109.0975223 11.00675737 108 14 C106.68 14 105.36 14 104 14 C103.67 16.31 103.34 18.62 103 21 C102.071875 21.185625 102.071875 21.185625 101.125 21.375 C98.80879168 21.87197356 98.80879168 21.87197356 97 24 C90.73559322 24.56949153 90.73559322 24.56949153 88.0625 22.5 C87.711875 22.005 87.36125 21.51 87 21 C86.505 22.485 86.505 22.485 86 24 C85.34 24 84.68 24 84 24 C84 24.66 84 25.32 84 26 C84.99 25.67 85.98 25.34 87 25 C89.39490986 24.93029948 91.79167691 24.91551997 94.1875 24.9375 C95.45980469 24.94652344 96.73210937 24.95554687 98.04296875 24.96484375 C99.50669922 24.98224609 99.50669922 24.98224609 101 25 C101.495 25.99 101.495 25.99 102 27 C69.99 27 37.98 27 5 27 C5 26.67 5 26.34 5 26 C6.26457031 25.92652344 6.26457031 25.92652344 7.5546875 25.8515625 C8.65039062 25.77679688 9.74609375 25.70203125 10.875 25.625 C11.96554688 25.55539063 13.05609375 25.48578125 14.1796875 25.4140625 C17.13046474 25.26746509 17.13046474 25.26746509 19 23 C19.99 23 20.98 23 22 23 C22.103125 22.484375 22.20625 21.96875 22.3125 21.4375 C23.24263866 18.13973565 24.61395512 15.13366668 26 12 C23.24371063 9.67714771 23.24371063 9.67714771 20.5 10.375 C19.675 10.58125 18.85 10.7875 18 11 C16.33333333 11 14.66666667 11 13 11 C12.34 13.31 11.68 15.62 11 18 C8.525 17.01 8.525 17.01 6 16 C6 15.34 6 14.68 6 14 C4.58333333 12.41666667 4.58333333 12.41666667 3 11 C2 10 1 9 0 8 C0.66 7.01 1.32 6.02 2 5 C2 4.01 2 3.02 2 2 C1.34 2 0.68 2 0 2 C0 1.34 0 0.68 0 0 Z " fill="#213244" transform="translate(209,25)"/>
<path d="M0 0 C4.75 0.875 4.75 0.875 7 2 C7 2.66 7 3.32 7 4 C7.66 4 8.32 4 9 4 C9 5.32 9 6.64 9 8 C9.66 8 10.32 8 11 8 C11.02279003 37.79319313 11.040498 67.58638596 11.05106533 97.37958592 C11.05231611 100.89327539 11.05361042 104.40696485 11.05493164 107.9206543 C11.05532511 108.96996662 11.05532511 108.96996662 11.05572652 110.04047716 C11.06008328 121.38209168 11.06797086 132.72370116 11.0771528 144.06531268 C11.08648916 155.69427491 11.09198067 167.32323419 11.09408849 178.9522 C11.09539604 185.48761304 11.09848468 192.02301462 11.10573006 198.558424 C11.11248618 204.70193847 11.1146178 210.8454367 11.11310768 216.98895454 C11.11338419 219.2509533 11.11539172 221.51295256 11.11920547 223.77494812 C11.12413636 226.84871932 11.12300053 229.9224281 11.12025452 232.99620056 C11.12462378 234.35755415 11.12462378 234.35755415 11.12908131 235.74640983 C11.11412121 241.88587879 11.11412121 241.88587879 10 243 C9.8453125 244.7325 9.8453125 244.7325 9.6875 246.5 C9.14810024 251.46247782 7.20525084 255.56898436 5 260 C4.34 260 3.68 260 3 260 C3 261.32 3 262.64 3 264 C2.34 264 1.68 264 1 264 C1 264.66 1 265.32 1 266 C0.34 266 -0.32 266 -1 266 C-1 267.32 -1 268.64 -1 270 C-1.66 270 -2.32 270 -3 270 C-3 270.66 -3 271.32 -3 272 C-3.66 272 -4.32 272 -5 272 C-5 272.66 -5 273.32 -5 274 C-5.66 274 -6.32 274 -7 274 C-7.66 275.32 -8.32 276.64 -9 278 C-9.66 278 -10.32 278 -11 278 C-11 278.66 -11 279.32 -11 280 C-11.66 280 -12.32 280 -13 280 C-13 280.66 -13 281.32 -13 282 C-13.66 282 -14.32 282 -15 282 C-15 282.66 -15 283.32 -15 284 C-15.66 284 -16.32 284 -17 284 C-17 284.66 -17 285.32 -17 286 C-17.66 286 -18.32 286 -19 286 C-19 286.66 -19 287.32 -19 288 C-20.32 288 -21.64 288 -23 288 C-23 288.66 -23 289.32 -23 290 C-23.66 290 -24.32 290 -25 290 C-25 290.66 -25 291.32 -25 292 C-26.32 292 -27.64 292 -29 292 C-29 292.66 -29 293.32 -29 294 C-32 296 -32 296 -35 296 C-35 296.66 -35 297.32 -35 298 C-36.32 298 -37.64 298 -39 298 C-39 298.66 -39 299.32 -39 300 C-40.32 300 -41.64 300 -43 300 C-43 300.66 -43 301.32 -43 302 C-44.32 302 -45.64 302 -47 302 C-47 302.66 -47 303.32 -47 304 C-48.32 304 -49.64 304 -51 304 C-51 304.66 -51 305.32 -51 306 C-52.98 306 -54.96 306 -57 306 C-57 306.66 -57 307.32 -57 308 C-58.32 308 -59.64 308 -61 308 C-61 308.66 -61 309.32 -61 310 C-62.32 310 -63.64 310 -65 310 C-65 310.66 -65 311.32 -65 312 C-65.68707031 312.26554687 -66.37414062 312.53109375 -67.08203125 312.8046875 C-68.43361328 313.33449219 -68.43361328 313.33449219 -69.8125 313.875 C-70.70582031 314.22304688 -71.59914063 314.57109375 -72.51953125 314.9296875 C-75.17711591 315.98832155 -75.17711591 315.98832155 -78 318 C-80.6875 318.125 -80.6875 318.125 -83 318 C-83 318.66 -83 319.32 -83 320 C-84.32 320 -85.64 320 -87 320 C-87 320.66 -87 321.32 -87 322 C-88.32 322 -89.64 322 -91 322 C-91 322.66 -91 323.32 -91 324 C-92.32 324 -93.64 324 -95 324 C-95 324.66 -95 325.32 -95 326 C-96.98 326 -98.96 326 -101 326 C-101 326.66 -101 327.32 -101 328 C-102.32 328 -103.64 328 -105 328 C-105 328.66 -105 329.32 -105 330 C-106.32 330 -107.64 330 -109 330 C-109 330.66 -109 331.32 -109 332 C-110.32 332 -111.64 332 -113 332 C-113 332.66 -113 333.32 -113 334 C-114.32 334 -115.64 334 -117 334 C-117 334.66 -117 335.32 -117 336 C-118.32 336 -119.64 336 -121 336 C-121 336.66 -121 337.32 -121 338 C-124 340 -124 340 -127 340 C-127 340.66 -127 341.32 -127 342 C-127.66 342 -128.32 342 -129 342 C-129 342.66 -129 343.32 -129 344 C-132.4352048 346.29013653 -133.985331 346.17842973 -138 346 C-130.59446521 336.02970431 -117.94760188 331.26350943 -107 326 C-106.32598145 325.67338379 -105.65196289 325.34676758 -104.95751953 325.01025391 C-96.69765435 321.01329077 -88.37474387 317.15928392 -80.015625 313.375 C-79.30377548 313.05253799 -78.59192596 312.73007599 -77.85850525 312.39784241 C-74.29995333 310.78672847 -70.73958716 309.17983623 -67.17602539 307.57983398 C-57.65920479 303.29251179 -48.29668484 298.74522975 -39 294 C-38.37569595 293.68152603 -37.75139191 293.36305206 -37.10816956 293.03492737 C-18.09536359 283.306665 -2.17869057 269.13694837 5.18639994 248.54378498 C7.53874585 241.18898934 8.296651 233.95750046 8.28088379 226.27145386 C8.28682603 225.3456713 8.29276828 224.41988875 8.29889059 223.46605217 C8.31610618 220.39253227 8.31926737 217.31916959 8.32226562 214.24560547 C8.33153267 212.0305346 8.34158342 209.81546689 8.35235596 207.60040283 C8.37849184 201.60478242 8.39147004 195.60920668 8.40037727 189.61353827 C8.40625256 185.86555353 8.41446441 182.11758084 8.42338562 178.3696022 C8.44757385 167.97739473 8.46835167 157.58519574 8.4751358 147.19296074 C8.47557494 146.5296443 8.47601407 145.86632786 8.47646651 145.18291093 C8.47690306 144.51809736 8.47733962 143.85328379 8.4777894 143.16832435 C8.47867631 141.82136337 8.47956943 140.47440238 8.48046875 139.12744141 C8.48091161 138.45931597 8.48135447 137.79119053 8.48181075 137.10281886 C8.48971576 126.26437033 8.52466475 115.42618994 8.57118779 104.58784507 C8.61864662 93.44105192 8.64302485 82.2943566 8.64587164 71.14745247 C8.64796742 64.89629923 8.65977735 58.64552561 8.69551086 52.3944664 C8.72844918 46.51899347 8.73279532 40.64418619 8.71523285 34.76865387 C8.71369123 32.61438591 8.72238935 30.46008227 8.74214935 28.30590439 C8.76757384 25.36133694 8.75584947 22.41913062 8.73498535 19.47457886 C8.75109816 18.62534847 8.76721097 17.77611809 8.78381205 16.90115345 C8.65955904 9.38726253 5.16654909 5.16654909 0 0 Z " fill="#EFEFEE" transform="translate(331,26)"/>
<path d="M0 0 C34.82083699 -0.11440305 69.64163113 -0.2025273 104.46261541 -0.25532665 C108.57200108 -0.2615803 112.68138637 -0.2680519 116.79077148 -0.2746582 C117.60888838 -0.27596976 118.42700528 -0.27728131 119.26991359 -0.2786326 C132.5229725 -0.30039899 145.77592316 -0.33982727 159.02891781 -0.38576398 C172.62411439 -0.43249437 186.21925421 -0.46028815 199.81452781 -0.47044247 C208.20600808 -0.47730876 216.59718237 -0.49900779 224.98856846 -0.53958233 C230.74008506 -0.56597857 236.49144311 -0.57400812 242.24301591 -0.56750689 C245.56328695 -0.56429901 248.88290858 -0.57199139 252.20310974 -0.59602737 C255.80138031 -0.62080541 259.39832836 -0.61495924 262.99662781 -0.60127258 C264.04818343 -0.61583679 265.09973906 -0.630401 266.18316001 -0.64540654 C273.27420548 -0.57220801 273.27420548 -0.57220801 277.03536701 2.39304829 C277.6836959 3.25334235 278.33202478 4.11363642 279 5 C280.2065625 6.1446875 280.2065625 6.1446875 281.4375 7.3125 C283.20021702 10.34437327 283.13190988 10.86492358 282.375 14.125 C281.54369064 16.89962994 280.6536885 18.51946725 279 21 C277.68 21 276.36 21 275 21 C275 21.99 275 22.98 275 24 C272.69 23.67 270.38 23.34 268 23 C268 24.32 268 25.64 268 27 C267.401875 26.79375 266.80375 26.5875 266.1875 26.375 C263.71549154 25.69328085 263.71549154 25.69328085 261 28 C260.7497843 31.08365871 260.7497843 31.08365871 261 34 C259.515 34.495 259.515 34.495 258 35 C258 35.66 258 36.32 258 37 C257.34 37 256.68 37 256 37 C256 34.36 256 31.72 256 29 C177.13 29 98.26 29 17 29 C17 28.67 17 28.34 17 28 C89.6 27.67 162.2 27.34 237 27 C237 26.34 237 25.68 237 25 C238.5 23.375 238.5 23.375 240 22 C240.66 22.33 241.32 22.66 242 23 C244.96895056 23.98965019 246.9086614 24.23779528 250 24 C250.66 23.34 251.32 22.68 252 22 C252.99 21.67 253.98 21.34 255 21 C255.28875 20.030625 255.5775 19.06125 255.875 18.0625 C257 15 257 15 259.5625 13.8125 C260.7690625 13.4103125 260.7690625 13.4103125 262 13 C262.33 12.01 262.66 11.02 263 10 C264.485 9.01 264.485 9.01 266 8 C266.33 6.02 266.66 4.04 267 2 C134.835 1.505 134.835 1.505 0 1 C0 0.67 0 0.34 0 0 Z " fill="#67727D" transform="translate(56,24)"/>
<path d="M0 0 C0.66 0 1.32 0 2 0 C2 74.58 2 149.16 2 226 C1.67 226 1.34 226 1 226 C0.67 167.92 0.34 109.84 0 50 C-1.65 50.66 -3.3 51.32 -5 52 C-7.3125 51.625 -7.3125 51.625 -9 51 C-8.67 49.35 -8.34 47.7 -8 46 C-6.515 45.505 -6.515 45.505 -5 45 C-4.505 42.03 -4.505 42.03 -4 39 C-5.4540625 38.4121875 -5.4540625 38.4121875 -6.9375 37.8125 C-10 36 -10 36 -10.875 33.3125 C-10.936875 32.1678125 -10.936875 32.1678125 -11 31 C-11.66 31 -12.32 31 -13 31 C-12.34 29.35 -11.68 27.7 -11 26 C-10.01 26 -9.02 26 -8 26 C-7.67 25.34 -7.34 24.68 -7 24 C-6.67 24.33 -6.34 24.66 -6 25 C-6 24.01 -6 23.02 -6 22 C-7.65 22.33 -9.3 22.66 -11 23 C-10.67 21.68 -10.34 20.36 -10 19 C-10.99 19.33 -11.98 19.66 -13 20 C-14.61949011 17.42786866 -15.04408751 16.32330841 -14.625 13.25 C-14.41875 12.5075 -14.2125 11.765 -14 11 C-12.02 10.67 -10.04 10.34 -8 10 C-7.67 10.66 -7.34 11.32 -7 12 C-7 11.01 -7 10.02 -7 9 C-5 8 -3 7 -1 6 C-0.34227572 2.97065509 -0.34227572 2.97065509 0 0 Z " fill="#2D3847" transform="translate(338,36)"/>
<path d="M0 0 C2.01857816 3.02786725 3.36826948 6.00294018 4.875 9.3125 C20.73851977 41.95433158 60.32115957 54.55505959 91.28515625 68.22265625 C102.91695337 73.3619037 114.49483228 78.56624187 125.8125 84.375 C126.7305542 84.83841797 127.6486084 85.30183594 128.59448242 85.77929688 C134.44497377 88.84532393 139.2319678 92.43185549 144 97 C142.68 97.33 141.36 97.66 140 98 C140 97.34 140 96.68 140 96 C139.34 96 138.68 96 138 96 C138 95.34 138 94.68 138 94 C137.38125 93.855625 136.7625 93.71125 136.125 93.5625 C134 93 134 93 132 92 C132 91.34 132 90.68 132 90 C130.68 90 129.36 90 128 90 C128 89.34 128 88.68 128 88 C126.68 88 125.36 88 124 88 C124 87.34 124 86.68 124 86 C122.68 86 121.36 86 120 86 C120 85.34 120 84.68 120 84 C119.4225 83.855625 118.845 83.71125 118.25 83.5625 C116.16666667 83.04166667 114.08333333 82.52083333 112 82 C112 81.34 112 80.68 112 80 C110.68 80 109.36 80 108 80 C108 79.34 108 78.68 108 78 C106.68 78 105.36 78 104 78 C104 77.34 104 76.68 104 76 C103.278125 76.04125 102.55625 76.0825 101.8125 76.125 C98.79270631 75.99078695 96.73064271 75.24829381 94 74 C94 73.34 94 72.68 94 72 C92.68 72 91.36 72 90 72 C90 71.34 90 70.68 90 70 C88.68 70 87.36 70 86 70 C86 69.34 86 68.68 86 68 C84.68 68 83.36 68 82 68 C82 67.34 82 66.68 82 66 C80.68 66 79.36 66 78 66 C78 65.34 78 64.68 78 64 C76.68 64 75.36 64 74 64 C74 63.34 74 62.68 74 62 C73.278125 62.04125 72.55625 62.0825 71.8125 62.125 C68.79270631 61.99078695 66.73064271 61.24829381 64 60 C64 59.34 64 58.68 64 58 C62.68 58 61.36 58 60 58 C60 57.34 60 56.68 60 56 C58.68 56 57.36 56 56 56 C56 55.34 56 54.68 56 54 C54.68 54 53.36 54 52 54 C52 53.34 52 52.68 52 52 C50.68 52 49.36 52 48 52 C48 51.34 48 50.68 48 50 C46.68 50 45.36 50 44 50 C44 49.34 44 48.68 44 48 C42.68 48 41.36 48 40 48 C40 47.34 40 46.68 40 46 C38.68 46 37.36 46 36 46 C36 45.34 36 44.68 36 44 C34.68 44 33.36 44 32 44 C32 43.34 32 42.68 32 42 C31.34 42 30.68 42 30 42 C30 41.34 30 40.68 30 40 C28.68 40 27.36 40 26 40 C26 39.34 26 38.68 26 38 C25.34 38 24.68 38 24 38 C24 37.34 24 36.68 24 36 C23.34 36 22.68 36 22 36 C22 35.34 22 34.68 22 34 C21.34 34 20.68 34 20 34 C20 33.34 20 32.68 20 32 C19.34 32 18.68 32 18 32 C18 31.34 18 30.68 18 30 C17.34 30 16.68 30 16 30 C16 29.34 16 28.68 16 28 C15.34 28 14.68 28 14 28 C14 27.34 14 26.68 14 26 C13.34 26 12.68 26 12 26 C12 25.34 12 24.68 12 24 C11.34 24 10.68 24 10 24 C9.34 22.02 8.68 20.04 8 18 C7.34 18 6.68 18 6 18 C6 16.68 6 15.36 6 14 C5.34 14 4.68 14 4 14 C2.23537317 10.91190305 2 9.76687864 2 6 C1.34 6 0.68 6 0 6 C0 4.02 0 2.04 0 0 Z " fill="#F4F4F3" transform="translate(48,274)"/>
<path d="M0 0 C20.13 0 40.26 0 61 0 C61 0.33 61 0.66 61 1 C50.11 1 39.22 1 28 1 C27.67 1.99 27.34 2.98 27 4 C26.01 4.495 26.01 4.495 25 5 C25 5.99 25 6.98 25 8 C24.01 8.33 23.02 8.66 22 9 C20.87483915 10.83284443 20.87483915 10.83284443 20 13 C19.33333333 14.33333333 18.66666667 15.66666667 18 17 C17.34 17 16.68 17 16 17 C15.4225 15.88625 14.845 14.7725 14.25 13.625 C12.50260995 10.61560603 11.47292043 8.96470012 8 8 C5.33211969 7.56903472 2.69258599 7.2692586 0 7 C0 4.69 0 2.38 0 0 Z " fill="#73482E" transform="translate(114,102)"/>
<path d="M0 0 C0.33 0 0.66 0 1 0 C1 38.61 1 77.22 1 117 C0.67 117 0.34 117 0 117 C-0.495 96.21 -0.495 96.21 -1 75 C-3.64 76.98 -6.28 78.96 -9 81 C-9 79 -9 77 -9 75 C-9.66 75 -10.32 75 -11 75 C-11 74.34 -11 73.68 -11 73 C-11.639375 72.896875 -12.27875 72.79375 -12.9375 72.6875 C-13.618125 72.460625 -14.29875 72.23375 -15 72 C-15.33 71.01 -15.66 70.02 -16 69 C-15.34 68.01 -14.68 67.02 -14 66 C-13.67 66.99 -13.34 67.98 -13 69 C-11.01954441 69.66179847 -11.01954441 69.66179847 -9 70 C-8.67 70.33 -8.34 70.66 -8 71 C-8 70.01 -8 69.02 -8 68 C-8.66 67.67 -9.32 67.34 -10 67 C-9.2265625 66.4121875 -9.2265625 66.4121875 -8.4375 65.8125 C-7.963125 65.214375 -7.48875 64.61625 -7 64 C-7.32852082 61.44063441 -7.32852082 61.44063441 -8 59 C-7.67 58.34 -7.34 57.68 -7 57 C-4.5625 57.375 -4.5625 57.375 -2 58 C-1.67 58.66 -1.34 59.32 -1 60 C-0.505 30.3 -0.505 30.3 0 0 Z " fill="#79543F" transform="translate(257,117)"/>
<path d="M0 0 C4.75 0.875 4.75 0.875 7 2 C7 2.66 7 3.32 7 4 C7.66 4 8.32 4 9 4 C9 5.32 9 6.64 9 8 C9.66 8 10.32 8 11 8 C11 80.93 11 153.86 11 229 C10.67 229 10.34 229 10 229 C9.99761165 227.89840011 9.99522329 226.79680021 9.99276257 225.6618185 C9.93397941 198.86285868 9.85810385 172.06398884 9.76428509 145.26512814 C9.71931121 132.30542247 9.67990016 119.34574438 9.65356445 106.38598633 C9.63059734 95.0908404 9.5972136 83.79578164 9.55129844 72.50070482 C9.527349 66.51953464 9.50863145 60.53845086 9.50238609 54.55723381 C9.49634312 48.92740958 9.4763714 43.29780652 9.44572449 37.66806412 C9.4369317 35.60210899 9.43322424 33.53612498 9.43499184 31.4701519 C9.4366441 28.64784992 9.41994904 25.82622249 9.39872742 23.00401306 C9.40357499 22.18784907 9.40842257 21.37168507 9.41341704 20.53078884 C9.30671505 11.92304657 6.10495413 6.10495413 0 0 Z " fill="#FDFDFA" transform="translate(331,26)"/>
<path d="M0 0 C1.875 0.25 1.875 0.25 4 1 C5.25 3.0625 5.25 3.0625 6 5 C6.78375 4.79375 7.5675 4.5875 8.375 4.375 C9.674375 4.189375 9.674375 4.189375 11 4 C11.66 4.66 12.32 5.32 13 6 C12.01 6.495 12.01 6.495 11 7 C12.3089572 10.12197478 12.3089572 10.12197478 15 12 C13.27026886 13.72973114 10.97483037 13.17208117 8.625 13.1875 C7.64789063 13.20167969 6.67078125 13.21585938 5.6640625 13.23046875 C3 13 3 13 0 11 C-1.67542976 11.28604898 -3.34385343 11.61781233 -5 12 C-5.66 11.67 -6.32 11.34 -7 11 C-6.6875 9.125 -6.6875 9.125 -6 7 C-3 5 -3 5 -2 5 C-1.34 3.35 -0.68 1.7 0 0 Z " fill="#223346" transform="translate(73,38)"/>
<path d="M0 0 C7.26 0 14.52 0 22 0 C21.67 1.32 21.34 2.64 21 4 C20.34 4 19.68 4 19 4 C18.67 4.66 18.34 5.32 18 6 C17.01 5.67 16.02 5.34 15 5 C14.67 6.98 14.34 8.96 14 11 C13.34 11 12.68 11 12 11 C11.56042969 10.53980469 11.12085937 10.07960938 10.66796875 9.60546875 C8.65405427 7.66701711 6.97181369 7.12185634 4.3125 6.3125 C3.50425781 6.06113281 2.69601563 5.80976562 1.86328125 5.55078125 C1.24839844 5.36902344 0.63351563 5.18726562 0 5 C0 3.35 0 1.7 0 0 Z " fill="#5C2F18" transform="translate(115,103)"/>
<path d="M0 0 C6.27 0 12.54 0 19 0 C19 1.65 19 3.3 19 5 C17.56465159 5.2226746 16.12654475 5.42761906 14.6875 5.625 C13.88699219 5.74101563 13.08648437 5.85703125 12.26171875 5.9765625 C10 6 10 6 7 4 C6.67 4.99 6.34 5.98 6 7 C6 6.01 6 5.02 6 4 C5.236875 4.680625 4.47375 5.36125 3.6875 6.0625 C2.800625 6.701875 1.91375 7.34125 1 8 C0.01 7.67 -0.98 7.34 -2 7 C-1.67 6.030625 -1.34 5.06125 -1 4.0625 C0.05173363 1.37850426 0.05173363 1.37850426 0 0 Z " fill="#562C14" transform="translate(253,103)"/>
<path d="M0 0 C3 1 3 1 3 1 Z M-5 0 C-3.35 0.33 -1.7 0.66 0 1 C-0.99 1.33 -1.98 1.66 -3 2 C-2.67 3.32 -2.34 4.64 -2 6 C-1.34 6 -0.68 6 0 6 C0 6.66 0 7.32 0 8 C-12.66970387 10.66514806 -12.66970387 10.66514806 -18 8 C-16.68 7.34 -15.36 6.68 -14 6 C-14.33 5.01 -14.66 4.02 -15 3 C-14.34 3 -13.68 3 -13 3 C-13 2.34 -13 1.68 -13 1 C-10.36 1.66 -7.72 2.32 -5 3 C-5 2.01 -5 1.02 -5 0 Z " fill="#273949" transform="translate(248,42)"/>
<path d="M0 0 C0.99 0.33 1.98 0.66 3 1 C2.34 1.66 1.68 2.32 1 3 C1.28604898 4.67542976 1.61781233 6.34385343 2 8 C1 9 1 9 -2.16015625 9.09765625 C-4.09181641 9.08025391 -4.09181641 9.08025391 -6.0625 9.0625 C-7.35285156 9.05347656 -8.64320313 9.04445313 -9.97265625 9.03515625 C-10.97167969 9.02355469 -11.97070312 9.01195312 -13 9 C-13.33 8.34 -13.66 7.68 -14 7 C-13.01 7 -12.02 7 -11 7 C-11.33 6.01 -11.66 5.02 -12 4 C-11.34 4 -10.68 4 -10 4 C-10 3.34 -10 2.68 -10 2 C-8.68 1.67 -7.36 1.34 -6 1 C-5.67 1.66 -5.34 2.32 -5 3 C-3.68 3 -2.36 3 -1 3 C-0.67 2.01 -0.34 1.02 0 0 Z " fill="#243545" transform="translate(146,42)"/>
<path d="M0 0 C-1.14453125 1.984375 -1.14453125 1.984375 -3 4 C-5.69921875 4.390625 -5.69921875 4.390625 -8.6875 4.25 C-9.68136719 4.21390625 -10.67523438 4.1778125 -11.69921875 4.140625 C-12.45847656 4.09421875 -13.21773437 4.0478125 -14 4 C-14 2.02 -14 0.04 -14 -2 C-8.03201996 -3.03291962 -5.04414952 -3.36276635 0 0 Z " fill="#4E2813" transform="translate(226,247)"/>
<path d="M0 0 C4.62 0 9.24 0 14 0 C14 0.66 14 1.32 14 2 C13.34 2 12.68 2 12 2 C11.67 2.99 11.34 3.98 11 5 C9.02 5.33 7.04 5.66 5 6 C4.67 5.34 4.34 4.68 4 4 C3.01 3.67 2.02 3.34 1 3 C0.67 2.01 0.34 1.02 0 0 Z " fill="#1A2A3B" transform="translate(307,25)"/>
<path d="M0 0 C2.08819951 3.13229927 3.57982085 6.28451783 5.1875 9.6875 C8.0378641 15.57698395 11.29023006 20.39043793 16 25 C14.68 25.33 13.36 25.66 12 26 C12 25.34 12 24.68 12 24 C11.34 24 10.68 24 10 24 C9.34 22.02 8.68 20.04 8 18 C7.34 18 6.68 18 6 18 C6 16.68 6 15.36 6 14 C5.34 14 4.68 14 4 14 C2.23537317 10.91190305 2 9.76687864 2 6 C1.34 6 0.68 6 0 6 C0 4.02 0 2.04 0 0 Z " fill="#E6E6E6" transform="translate(48,274)"/>
<path d="M0 0 C1.32 0 2.64 0 4 0 C4 0.66 4 1.32 4 2 C4.66 2.33 5.32 2.66 6 3 C4.35 4.32 2.7 5.64 1 7 C1.33 7.66 1.66 8.32 2 9 C0.35 9 -1.3 9 -3 9 C-3.625 6.6875 -3.625 6.6875 -4 4 C-3.34 3.01 -2.68 2.02 -2 1 C-1.34 1.33 -0.68 1.66 0 2 C0 1.34 0 0.68 0 0 Z " fill="#263243" transform="translate(319,58)"/>
<path d="M0 0 C4.455 0.99 4.455 0.99 9 2 C9 2.66 9 3.32 9 4 C8.07767578 4.09087891 8.07767578 4.09087891 7.13671875 4.18359375 C6.32847656 4.26738281 5.52023438 4.35117188 4.6875 4.4375 C3.88699219 4.51871094 3.08648437 4.59992188 2.26171875 4.68359375 C-0.16087179 4.95265693 -0.16087179 4.95265693 -3 6 C-3.33 6.99 -3.66 7.98 -4 9 C-4.66 8.67 -5.32 8.34 -6 8 C-5.75 6.125 -5.75 6.125 -5 4 C-3 2.875 -3 2.875 -1 2 C-0.67 1.34 -0.34 0.68 0 0 Z " fill="#5E351E" transform="translate(166,105)"/>
<path d="M0 0 C2.31 0.33 4.62 0.66 7 1 C5.5 3.9375 5.5 3.9375 3 7 C0.23513429 7.83895734 -2.07439213 7.90247974 -5 8 C-5 7.34 -5 6.68 -5 6 C-4.34 6 -3.68 6 -3 6 C-2.690625 5.38125 -2.38125 4.7625 -2.0625 4.125 C-1.375 2.75 -0.6875 1.375 0 0 Z " fill="#1E3043" transform="translate(152,26)"/>
<path d="M0 0 C-1.2544963 3.7634889 -3.04721767 5.39056445 -6 8 C-8.3125 8.8125 -8.3125 8.8125 -10 9 C-10 8.01 -10 7.02 -10 6 C-9.34 6 -8.68 6 -8 6 C-8 4.68 -8 3.36 -8 2 C-4.77208445 -0.1519437 -3.71599191 -0.20086443 0 0 Z " fill="#778290" transform="translate(56,26)"/>
<path d="M0 0 C0.33 0.99 0.66 1.98 1 3 C0.34 3 -0.32 3 -1 3 C-1 3.66 -1 4.32 -1 5 C-1.66 5 -2.32 5 -3 5 C-3.66 6.32 -4.32 7.64 -5 9 C-5.66 9 -6.32 9 -7 9 C-7 9.66 -7 10.32 -7 11 C-7.66 11 -8.32 11 -9 11 C-9 11.66 -9 12.32 -9 13 C-9.66 13 -10.32 13 -11 13 C-11 13.66 -11 14.32 -11 15 C-11.66 15 -12.32 15 -13 15 C-13.33 15.66 -13.66 16.32 -14 17 C-14 14 -14 14 -12.3203125 11.95703125 C-11.23363281 10.89548828 -11.23363281 10.89548828 -10.125 9.8125 C-9.40570313 9.09707031 -8.68640625 8.38164062 -7.9453125 7.64453125 C-6 6 -6 6 -4 6 C-3.566875 5.071875 -3.566875 5.071875 -3.125 4.125 C-2 2 -2 2 0 0 Z " fill="#FDFDFC" transform="translate(327,295)"/>
<path d="M0 0 C1.32 0 2.64 0 4 0 C4.33 0.99 4.66 1.98 5 3 C7.00016466 4.20882096 7.00016466 4.20882096 9 5 C2.375 7.125 2.375 7.125 -1 6 C-0.67 4.02 -0.34 2.04 0 0 Z " fill="#253646" transform="translate(155,45)"/>
<path d="M0 0 C3.96 0 7.92 0 12 0 C12 0.33 12 0.66 12 1 C10.35 1 8.7 1 7 1 C6.34 2.32 5.68 3.64 5 5 C3.35 5 1.7 5 0 5 C0 3.35 0 1.7 0 0 Z " fill="#522711" transform="translate(115,103)"/>
<path d="M0 0 C0.66 0.33 1.32 0.66 2 1 C1.525625 1.5775 1.05125 2.155 0.5625 2.75 C-1.09418867 4.84682179 -1.09418867 4.84682179 -1.5 7.0625 C-2.11392329 9.44145275 -3.17280887 10.41113815 -5 12 C-6.0625 10.1875 -6.0625 10.1875 -7 8 C-6.67 7.01 -6.34 6.02 -6 5 C-5.01 4.67 -4.02 4.34 -3 4 C-1.31461399 2.00334686 -1.31461399 2.00334686 0 0 Z " fill="#1F2F47" transform="translate(53,29)"/>
<path d="M0 0 C0.66 0 1.32 0 2 0 C1.814375 0.94875 1.62875 1.8975 1.4375 2.875 C0.71313368 5.89868793 0.71313368 5.89868793 2 8 C1.01 9.485 1.01 9.485 0 11 C0 10.34 0 9.68 0 9 C-1.32 8.67 -2.64 8.34 -4 8 C-3.34 6.02 -2.68 4.04 -2 2 C-1.34 2 -0.68 2 0 2 C0 1.34 0 0.68 0 0 Z " fill="#203145" transform="translate(133,27)"/>
<path d="M0 0 C-0.33 0.66 -0.66 1.32 -1 2 C-1.66 2 -2.32 2 -3 2 C-3 2.66 -3 3.32 -3 4 C-5.31 3.67 -7.62 3.34 -10 3 C-10 2.01 -10 1.02 -10 0 C-6.30458414 -0.95024979 -3.69541586 -0.95024979 0 0 Z " fill="#1E3144" transform="translate(98,27)"/>
<path d="M0 0 C4.78504172 2.48454089 7.86077669 4.47951843 11 9 C9.68 9 8.36 9 7 9 C7 8.34 7 7.68 7 7 C6.34 7 5.68 7 5 7 C5 6.34 5 5.68 5 5 C3.68 4.67 2.36 4.34 1 4 C0.67 2.68 0.34 1.36 0 0 Z " fill="#E9EAEA" transform="translate(181,363)"/>
<path d="M0 0 C2.97 0 5.94 0 9 0 C8.67 0.99 8.34 1.98 8 3 C5.03 3 2.06 3 -1 3 C-0.67 2.01 -0.34 1.02 0 0 Z " fill="#6B391B" transform="translate(237,103)"/>
<path d="M0 0 C4.75 0.875 4.75 0.875 7 2 C7 2.66 7 3.32 7 4 C7.66 4 8.32 4 9 4 C9 5.32 9 6.64 9 8 C5.28175844 6.76058615 4.32621255 5.0766037 2 2 C1.34 1.34 0.68 0.68 0 0 Z " fill="#F3F4F4" transform="translate(331,26)"/>
<path d="M0 0 C4.455 0.99 4.455 0.99 9 2 C9 2.66 9 3.32 9 4 C6.03 4 3.06 4 0 4 C0 2.68 0 1.36 0 0 Z " fill="#6F4A35" transform="translate(166,105)"/>
<path d="M0 0 C1.98 0 3.96 0 6 0 C5.01 0.495 5.01 0.495 4 1 C3.34786708 3.02463255 3.34786708 3.02463255 3 5 C2.01 5 1.02 5 0 5 C0 3.35 0 1.7 0 0 Z " fill="#4A220C" transform="translate(115,245)"/>
<path d="M0 0 C0.66 0.99 1.32 1.98 2 3 C1.5625 5.0625 1.5625 5.0625 1 7 C1.33 7.66 1.66 8.32 2 9 C1.01 9 0.02 9 -1 9 C-1.33 6.36 -1.66 3.72 -2 1 C-1.34 0.67 -0.68 0.34 0 0 Z " fill="#67371A" transform="translate(230,115)"/>
<path d="M0 0 C0.66 0.33 1.32 0.66 2 1 C1.67 1.99 1.34 2.98 1 4 C0.34 4 -0.32 4 -1 4 C-1 4.66 -1 5.32 -1 6 C-1.66 6 -2.32 6 -3 6 C-3 6.66 -3 7.32 -3 8 C-3.66 7.67 -4.32 7.34 -5 7 C-3.35 4.69 -1.7 2.38 0 0 Z " fill="#F7F6F3" transform="translate(309,310)"/>
<path d="M0 0 C1.32 0 2.64 0 4 0 C4 1.65 4 3.3 4 5 C2.35 5 0.7 5 -1 5 C-0.34 4.67 0.32 4.34 1 4 C0.67 2.68 0.34 1.36 0 0 Z " fill="#4E240E" transform="translate(171,245)"/>
</svg>
